<svg xmlns="http://www.w3.org/2000/svg" xmlns:xlink="http://www.w3.org/1999/xlink" width="27" height="81" viewBox="0 0 27 81"><svg width="23" height="27" id="icon-bag" y="0"><path stroke="red" stroke-width="2" fill="none" d="M4.245 5.002h13.499c1.242 0 2.48 1.952 2.48 3.067l.77 14.611c0 1.115-1.008 2.305-2.251 2.305H3.245c-1.242 0-2.249-1.19-2.249-2.305l.769-14.611c0-1.115 1.238-3.067 2.48-3.067z"></path><path stroke="red" stroke-width="2" fill="none" d="M6.008 8.994V5.285c0-2.365 2.016-4.282 4.503-4.282s4.504 1.917 4.504 4.282v3.709"></path></svg><svg width="27" height="27" id="icon-search" y="27"><path stroke="red" stroke-width="2" fill="none" d="M3.918 3.926C7.831.019 14.171.015 18.08 3.918c3.908 3.903 3.904 10.235-.009 14.143-3.913 3.908-10.253 3.912-14.162.009C.001 14.167.005 7.834 3.918 3.926z"></path><path stroke="red" stroke-width="2" fill="none" d="M11 5a6 6 0 1 1-.002 12A6 6 0 0 1 11 5zM23.657 23.657a3.001 3.001 0 0 1-4.243 0l-5.29-5.291a8.024 8.024 0 0 0 4.242-4.242l5.291 5.29a3.001 3.001 0 0 1 0 4.243z"></path></svg><svg width="27" height="27" id="icon-thumb-up" y="54"><path stroke="red" stroke-width="2" fill="none" d="M17.006 12.028v9.329s-1.691.071-2.361.702c-.67.631-2.074.947-3.702.947H7.592s-2.809.105-2.809-1.403c0 0-.111-.982.607-1.122 0 0-1.436-.299-1.436-1.964 0 0-.08-1.018.67-1.333 0 0-1.181-.14-1.181-1.719 0 0 .016-1.209.702-1.543 0 0-1.149-.14-1.149-1.718 0-1.578.766-1.543 1.277-1.578.51-.035 4.327-.69 4.327-.69s-.433-2.887-.306-4.501c.127-1.613.351-2.437 1.149-2.42.798.018.883.901 1.021 1.473.139.573.894 3.56 2.202 5.121 1.309 1.56 2.904 2.244 4.34 2.419z"></path><path stroke="red" stroke-width="2" fill="none" d="M18.999 9H23a2 2 0 0 1 1.999 2v12A2 2 0 0 1 23 25h-4.001a2 2 0 0 1-2-2V11a2 2 0 0 1 2-2z"></path></svg></svg>